<svg width="128pt" height="128pt" version="1.1" viewBox="0 0 128 128" xmlns="http://www.w3.org/2000/svg">
 <path d="m99.105 79.133-4.1602-1.6133c-6.0156-2.3203-11.695-4.5195-14.238-5.5469-4.4258-1.7617-4.8164-3.4961-4.8242-4.0547 13.719-11.664 12.52-31.375 12.453-32.344v-4.1992c5.5195-0.53516 6.625-3.9766 6.7734-6.0664 0.19922-2.7461-0.98438-5.4805-3.3203-7.6953-3.6406-3.4531-9.5859-6.2383-17.68-8.2969-6.6133-1.6641-13.602-1.6641-20.199 0-8.0938 2.0391-14.055 4.8398-17.68 8.2969-2.3359 2.2266-3.5195 4.9453-3.3203 7.6953 0.14453 2.0781 1.2539 5.5352 6.7734 6.0664v4.1992c-0.066406 0.97656-1.2656 20.695 12.453 32.359 0 0.55859-0.41406 2.2969-4.8164 4.0547-0.29687 0.12109-0.625 0.23828-0.97656 0.38672-3.6016 1.4141-10.762 4.1758-17.441 6.7461-9.4648 3.6562-15.574 12.559-15.574 22.703v17.082c0 0.54688 0.45312 1 1 1h99.344c0.54688 0 1-0.45312 1-1v-17.082c0-10.137-6.1055-19.055-15.574-22.703zm-19.281-5.3438-7.2539 11.547c-2.4414-0.67969-4.9844-1.0547-7.5742-1.1211v-10.375c0.53516-0.078125 1.0664-0.19922 1.5859-0.39844 2.8789-1.1367 5.3867-2.5352 7.5586-4.1367 0.51953 1.3047 1.9766 2.9766 5.6797 4.4805zm-44.93-48.605c-0.16016-2.1367 0.80078-4.3047 2.6953-6.1055 4.2148-4 11.453-6.4531 16.785-7.8008 6.2969-1.5859 12.934-1.5859 19.227 0 5.3359 1.3438 12.586 3.8008 16.785 7.8008 1.8945 1.8008 2.8555 3.9766 2.6953 6.1055-0.19922 2.7031-2.0391 4.0938-5.6016 4.2539-14.961-6.8633-32.055-6.8633-47 0-3.5742-0.16016-5.4141-1.5469-5.6016-4.2539zm29.105 4.2656c-7.6016 0-15.184 1.5469-22.336 4.625v-2.9766c14.227-6.4141 30.426-6.4141 44.656 0v2.9766c-7.1367-3.0781-14.734-4.625-22.336-4.625zm21.254 6.3594c-5.0547 3.2969-11.066 5.1055-17.105 5.1055h-8.2969c-6.0547 0-12.055-1.8164-17.105-5.1055 13.617-5.8008 28.906-5.8008 42.52 0zm-43.641 1.6562c5.3867 3.5195 11.785 5.4531 18.238 5.4531h8.2969c6.4531 0 12.84-1.9336 18.238-5.4531 0.015625 6.1367-1.4141 26.641-20.535 34.121-0.58594 0.22656-1.2148 0.34375-1.8242 0.34375h-0.039063c-0.625 0-1.2383-0.12109-1.8242-0.34375-19.121-7.4648-20.547-27.984-20.535-34.121zm12.238 31.84c2.1758 1.6016 4.6641 3 7.5469 4.1367 0.50391 0.19922 1.0391 0.32031 1.5742 0.39844v10.375c-2.5469 0.078125-5.0938 0.45312-7.5586 1.1211l-7.2383-11.547c3.7031-1.5039 5.1445-3.1836 5.6641-4.4805zm-22.336 48.602h-16.199v-16.078c0-9.3047 5.6133-17.48 14.297-20.84 6.2266-2.3984 12.867-4.9609 16.68-6.4531l7.1445 11.398c-11.297 3.8789-19.707 13.801-21.574 25.641-0.26562 1.7031-0.39844 3.4258-0.39844 5.1055 0 0.41406 0.023437 0.81641 0.039062 1.2266zm12.773 0c-0.023437-0.41406-0.066406-0.81641-0.066406-1.2266 0-8.6016 5.5352-16.145 13.602-18.785v10.32c-2.6953 1.9453-4.2969 5.0547-4.2969 8.4414 0 0.42578 0.023437 0.83984 0.078125 1.2539h-9.3047zm39.387 0h-9.2969c0.054688-0.41406 0.078125-0.83984 0.078125-1.2539 0-3.3594-1.6016-6.4648-4.3047-8.4258v-10.336c8.0664 2.6133 13.602 10.16 13.602 18.785 0 0.41406-0.039062 0.81641-0.066406 1.2266zm10.773 0h-8.7734c0.023438-0.41406 0.066407-0.81641 0.066407-1.2266 0-9.9844-6.7188-18.656-16.344-21.094-0.29688-0.078126-0.61328 0-0.86328 0.18359-0.23828 0.18359-0.38672 0.48047-0.38672 0.78516v12.184c0 0.33594 0.17578 0.65625 0.45312 0.83984 2.4141 1.5586 3.8555 4.1992 3.8555 7.0664 0 0.42578-0.039062 0.83984-0.10547 1.2539h-16.707c-0.066406-0.41406-0.10547-0.82422-0.10547-1.2539 0-2.8789 1.4258-5.5195 3.8242-7.0664 0.28125-0.18359 0.45312-0.50391 0.45312-0.83984v-12.184c0-0.30469-0.14453-0.60156-0.38672-0.78516-0.23828-0.18359-0.55859-0.25391-0.86328-0.17578-9.625 2.4648-16.344 11.137-16.344 21.094 0 0.41406 0.039063 0.81641 0.066406 1.2266h-8.7734c-0.015625-0.41406-0.039063-0.81641-0.039063-1.2266 0-1.5742 0.12109-3.1836 0.375-4.8008 1.8164-11.504 10.215-21.105 21.398-24.441 5.6953-1.7031 11.934-1.6953 17.48 0 11.184 3.3359 19.586 12.934 21.398 24.441 0.25391 1.6133 0.375 3.2266 0.375 4.8008 0 0.41406-0.023437 0.81641-0.039062 1.2266zm18.215 0h-16.215c0.015625-0.41406 0.039062-0.81641 0.039062-1.2266 0-1.6797-0.13672-3.3984-0.39844-5.1055-1.8633-11.84-10.281-21.762-21.574-25.625l7.1602-11.414c2.9453 1.1602 7.6133 2.9609 12.52 4.8555l4.1602 1.6133c8.6797 3.3594 14.297 11.535 14.297 20.84v16.078z" fill="#fff"/>
 <path d="m55.586 47.945c-0.76172 0.89453-2.2812 0.90625-3.0781 0-0.35937-0.41406-1-0.45312-1.4141-0.09375-0.41406 0.35938-0.45312 1-0.09375 1.4141 0.77344 0.89453 1.8789 1.3984 3.0391 1.3984 1.1602 0 2.2969-0.50391 3.0547-1.3984 0.35938-0.41406 0.30469-1.0547-0.10547-1.4141-0.41406-0.35937-1.0547-0.30469-1.4141 0.10547z" fill="#fff"/>
 <path d="m73.945 50.656c1.1758 0 2.2969-0.50391 3.0547-1.3984 0.35938-0.41406 0.30469-1.0547-0.10547-1.4141-0.42578-0.35938-1.0547-0.30469-1.4141 0.10547-0.76172 0.89453-2.2812 0.90625-3.0781 0-0.35938-0.41406-1-0.45312-1.4141-0.09375-0.41406 0.35938-0.45312 1-0.09375 1.4141 0.77344 0.89453 1.8789 1.3984 3.0391 1.3984z" fill="#fff"/>
 <path d="m64 56.734c0.54688 0 1-0.45312 1-1v-3.5586c0-0.54688-0.45312-1-1-1s-1 0.45312-1 1v3.5586c0 0.54688 0.45312 1 1 1z" fill="#fff"/>
 <path d="m68.934 61.199c0-0.54688-0.45312-1-1-1h-7.8789c-0.54688 0-1 0.45312-1 1s0.45312 1 1 1h7.8789c0.54688 0 1-0.45312 1-1z" fill="#fff"/>
</svg>
