<svg width="128px" height="128px" version="1.1" viewBox="0 0 128 128" xmlns="http://www.w3.org/2000/svg">
 <path d="m99.105 79.133-4.1602-1.6133c-6-2.3203-11.68-4.5039-14.238-5.5352-4.4258-1.7617-4.8164-3.5039-4.8242-4.0547 13.719-11.664 12.535-31.375 12.453-32.344v-4.1992c5.5195-0.53516 6.625-3.9766 6.7734-6.0664 0.19922-2.7344-0.97656-5.4648-3.3203-7.6953-3.625-3.4531-9.5742-6.2383-17.68-8.2812-6.6133-1.6797-13.602-1.6797-20.199 0-8.1055 2.0391-14.055 4.8242-17.68 8.2812-2.3359 2.2266-3.5195 4.9609-3.3203 7.6953 0.14453 2.0938 1.2539 5.5352 6.7734 6.0664v4.1992c-0.066406 0.97656-1.2656 20.68 12.453 32.344-0.015625 0.55859-0.41406 2.3047-4.8164 4.0547-0.29687 0.12109-0.625 0.23828-0.97656 0.38672-3.6016 1.4258-10.762 4.1836-17.441 6.7617-9.4648 3.6562-15.574 12.559-15.574 22.695v17.082c0 0.55859 0.44141 1 1 1h99.344c0.55859 0 1-0.44141 1-1v-17.082c0-10.137-6.1055-19.039-15.574-22.695zm-19.281-5.3594-7.2539 11.559c-2.4414-0.67969-4.9844-1.0547-7.5742-1.1367v-10.375c0.53516-0.066406 1.0664-0.18359 1.5859-0.38672 2.8789-1.1367 5.3867-2.5469 7.5586-4.1367 0.51953 1.2969 1.9766 2.9766 5.6797 4.4648zm-15.812-44.336c-7.6016 0-15.199 1.5469-22.336 4.625v-2.9766c14.227-6.4141 30.426-6.4141 44.656 0v2.9766c-7.1367-3.0781-14.734-4.625-22.32-4.625zm-22.383 8.0156c5.3867 3.5195 11.785 5.4648 18.227 5.4648h8.3047c6.4414 0 12.84-1.9453 18.227-5.4648 0.023437 6.1367-1.3984 26.641-20.535 34.121-0.58594 0.22656-1.2148 0.34375-1.8242 0.34375h-0.039063c-0.625 0-1.2383-0.12109-1.8398-0.34375-19.121-7.4805-20.547-27.984-20.52-34.121zm12.238 31.855c2.1758 1.6016 4.6641 3 7.5586 4.1367 0.50391 0.19922 1.0391 0.30469 1.5742 0.38672v10.387c-2.5469 0.078125-5.0938 0.44141-7.5586 1.1211l-7.2383-11.547c3.6953-1.5039 5.1445-3.1758 5.6641-4.4805zm-22.32 48.602-16.227-0.003906v-16.078c0-9.3047 5.6133-17.48 14.297-20.824 6.2266-2.3984 12.867-4.9609 16.68-6.4531l7.1445 11.398c-11.281 3.8789-19.695 13.785-21.559 25.641-0.26562 1.7031-0.39844 3.4258-0.39844 5.0938 0 0.41406 0.023437 0.82422 0.054687 1.2266zm12.773 0c-0.023437-0.39844-0.066406-0.81641-0.066406-1.2266 0-8.6016 5.5195-16.145 13.586-18.785v10.32c-2.6953 1.9453-4.2969 5.0664-4.2969 8.4414 0 0.42578 0.023437 0.83984 0.078125 1.2539h-9.3047zm39.375 0h-9.2969c0.054687-0.41406 0.078124-0.82422 0.078124-1.2539 0-3.3594-1.6016-6.4648-4.3047-8.4258v-10.336c8.0664 2.6133 13.586 10.16 13.586 18.785 0 0.41406-0.039062 0.82422-0.066406 1.2266zm28.984 0h-16.215c0.023437-0.39844 0.054687-0.81641 0.054687-1.2266 0-1.6797-0.13672-3.3867-0.39844-5.1055-1.8633-11.84-10.281-21.762-21.559-25.625l7.1445-11.414c2.9609 1.1602 7.6133 2.9609 12.52 4.8555l4.1602 1.6133c8.6953 3.3438 14.297 11.535 14.297 20.824v16.078z" fill="#9b9b9b"/>
 <path d="m54.055 47.602c-1.1602 0-2.2656 0.50391-3.0391 1.3984-0.35938 0.41406-0.32031 1.0547 0.09375 1.4141 0.41406 0.35938 1.0391 0.32031 1.4141-0.09375 0.80078-0.90625 2.3203-0.89453 3.0781 0 0.35938 0.41406 0.98438 0.46484 1.4141 0.10547 0.41406-0.35938 0.46484-0.98438 0.10547-1.4141-0.76172-0.89453-1.8789-1.3984-3.0547-1.3984z" fill="#9b9b9b"/>
 <path d="m72.414 50.32c0.80078-0.90625 2.3203-0.89453 3.0781 0 0.35937 0.41406 0.98437 0.46484 1.4141 0.10547 0.41406-0.35938 0.46484-0.98438 0.10547-1.4141-0.76172-0.89453-1.8789-1.3984-3.0547-1.3984s-2.2656 0.50391-3.0391 1.3984c-0.35938 0.41406-0.32031 1.0547 0.09375 1.4141 0.41406 0.35938 1.0391 0.32031 1.4141-0.09375z" fill="#9b9b9b"/>
 <path d="m68.934 61.199c0-0.54688-0.45312-1-1-1h-7.8789c-0.54688 0-1 0.45312-1 1s0.45312 1 1 1h7.8789c0.54688 0 1-0.45312 1-1z" fill="#9b9b9b"/>
</svg>