<?xml version="1.0" encoding="UTF-8"?>
<svg width="1200pt" height="1200pt" version="1.1" viewBox="0 0 1200 1200" xmlns="http://www.w3.org/2000/svg">
 <path d="m739.5 720c-1.7812-6.4219-6.8438-11.438-13.312-13.125-18.375-4.875-37.688-5.25-56.25-1.125 1.1719-6.7969 1.8281-13.688 1.875-20.625-0.046875-44.203-23.625-85.078-61.875-107.25-5.8125-3.3281-12.938-3.3281-18.75 0-38.25 22.172-61.828 63.047-61.875 107.25 0.046875 6.9375 0.70312 13.828 1.875 20.625-18.562-4.125-37.875-3.75-56.25 1.125-6.4688 1.6875-11.531 6.7031-13.312 13.125-8.9062 33.562-2.4844 69.281 17.438 97.688-3.5625 2.4844-6.1406 6.1406-7.3125 10.312-9.9844 37.828 0.75 78.141 28.312 105.94 10.969 11.016 24.234 19.5 38.812 24.938 13.969 5.4844 29.531 5.4844 43.5 0v18.75c0 10.359 8.3906 18.75 18.75 18.75s18.75-8.3906 18.75-18.75v-18.75c13.969 5.4844 29.531 5.4844 43.5 0 14.578-5.4375 27.844-13.922 38.812-24.938 27.469-27.844 38.25-68.109 28.312-105.94-1.2656-4.125-3.8438-7.7344-7.3125-10.312 19.547-28.594 25.547-64.312 16.312-97.688zm-34.125 20.812c2.9062 24.469-5.5312 48.891-22.875 66.375-1.7344 1.5938-3.5625 3.0938-5.4375 4.5-14.859 1.4531-29.297 5.9062-42.375 13.125-9.5625-3.8906-15.844-13.125-15.938-23.438 0-3.1875 0.5625-6.375 1.6875-9.375 4.3125-10.594 10.688-20.203 18.75-28.312 17.484-17.203 41.812-25.641 66.188-22.875zm-105.38-124.13c31.641 24.328 42.516 67.219 26.25 103.69-1.7812 3.75-4.3594 7.0312-7.5 9.75v-28.875c0-10.359-8.3906-18.75-18.75-18.75s-18.75 8.3906-18.75 18.75v28.875c-3.1406-2.7188-5.7188-6-7.5-9.75-5.0156-11.062-7.5469-23.109-7.5-35.25 0.09375-26.812 12.562-52.078 33.75-68.438zm-105.38 124.13c24.469-2.9531 48.984 5.3906 66.562 22.688 8.1562 8.1094 14.531 17.812 18.75 28.5 1.2656 2.9531 1.9219 6.1406 1.875 9.375-0.09375 10.547-6.6562 19.922-16.5 23.625-13.078-7.1719-27.516-11.578-42.375-12.938l-5.4375-4.6875c-17.438-17.531-25.828-42.047-22.875-66.562zm80.062 177.94c-6.1875 6.3281-15.562 8.3438-23.812 5.0625-9.75-3.5156-18.562-9.1875-25.875-16.5-15.281-15.375-22.922-36.75-20.812-58.312 21.562-2.2969 42.984 5.2969 58.312 20.625 7.2656 7.125 12.891 15.797 16.5 25.312 3.4688 8.0625 1.7812 17.438-4.3125 23.812zm100.31-11.438c-7.125 7.2656-15.797 12.891-25.312 16.5-8.25 3.1875-17.578 1.2188-23.859-5.0156-6.2344-6.2812-8.2031-15.609-5.0156-23.859 3.6562-9.5625 9.375-18.188 16.688-25.312 13.547-13.5 31.875-21.047 51-21 2.4375-0.1875 4.875-0.1875 7.3125 0 2.2969 21.703-5.3438 43.312-20.812 58.688z"/>
 <path d="m1021.9 939.94c-8.4844-5.4375-13.641-14.859-13.688-24.938v-514.13c16.922-15.281 26.578-37.031 26.625-59.812 0-21.703-8.625-42.469-23.953-57.797s-36.094-23.953-57.797-23.953h-5.4375c-268.87-267.19-426.37-267.19-695.26 0h-5.4375c-45.141 0-81.75 36.609-81.75 81.75 0.046875 22.781 9.7031 44.531 26.625 59.812v513.94c0.23438 9.6094-4.3125 18.656-12.188 24.188-30.422 19.453-49.172 52.781-50.062 88.875-0.89062 29.25 10.312 57.609 30.938 78.375 21.984 22.266 51.984 34.781 83.25 34.688h717c48.281-0.09375 90.797-31.734 104.86-77.906s-3.7031-96.141-43.734-123.1zm-128.06-680.63h-587.63c227.81-217.31 359.81-217.31 587.63 0zm-646.87 37.5h706.13c24.422 0 44.25 19.828 44.25 44.25s-19.828 44.25-44.25 44.25h-706.13c-24.422 0-44.25-19.828-44.25-44.25s19.828-44.25 44.25-44.25zm0 126h706.13c5.9531 0 11.859-0.70312 17.625-2.0625v63.75h-741.37v-63.75c5.7656 1.3594 11.672 2.0625 17.625 2.0625zm765.56 659.44c-13.453 13.641-31.828 21.281-51 21.188h-717.74c-21.188-0.14062-41.484-8.7656-56.25-24-13.266-13.406-20.578-31.594-20.25-50.438 0.28125-18.375 7.5-35.906 20.25-49.125 3.6094-3.6094 7.5469-6.7969 11.812-9.5625 18.797-12.422 29.859-33.703 29.25-56.25v-392.06h742.13v393.74c0.046875 22.594 11.344 43.734 30.188 56.25 19.781 13.266 31.781 35.438 32.062 59.25 0.28125 19.031-7.0781 37.406-20.438 51z"/>
 <path d="m720.19 179.63h-13.688c-10.359 0-18.75 8.3906-18.75 18.75s8.3906 18.75 18.75 18.75h13.688c10.359 0 18.75-8.3906 18.75-18.75s-8.3906-18.75-18.75-18.75z"/>
 <path d="m464.81 198.37h-13.688c-10.359 0-18.75 8.3906-18.75 18.75s8.3906 18.75 18.75 18.75h13.688c10.359 0 18.75-8.3906 18.75-18.75s-8.3906-18.75-18.75-18.75z"/>
 <path d="m588 134.63h-13.5c-10.359 0-18.75 8.3906-18.75 18.75s8.3906 18.75 18.75 18.75h13.5c10.359 0 18.75-8.3906 18.75-18.75s-8.3906-18.75-18.75-18.75z"/>
</svg>
