<svg width="128px" height="128px" version="1.1" viewBox="0 0 128 128" xmlns="http://www.w3.org/2000/svg">
 <path d="m49.586 108.07c4.7422 0 8.5898 3.8477 8.5898 8.5898 0 4.7422-3.8438 8.5898-8.5898 8.5898-4.7422 0-8.5898-3.8438-8.5898-8.5898 0.003906-4.7422 3.8477-8.5898 8.5898-8.5898zm24.355-105.32c14.496 0 26.246 11.75 26.246 26.246s-11.75 26.246-26.246 26.246-26.246-11.75-26.246-26.246 11.75-26.246 26.246-26.246zm-2.043 14.191v0.82422c-3.0859 0.71094-5.2969 3.4766-5.2969 6.6562 0 3.7578 3.0664 6.8281 6.8281 6.8281h1.0234c1.2773 0 2.3281 1.0508 2.3281 2.3281s-1.0508 2.3281-2.3281 2.3281l-1.4414-0.003906c-0.77734 0-1.4375-0.34766-1.8906-0.97266-0.72656-1.0039-2.1328-1.2305-3.1367-0.5-1.0039 0.72656-1.2305 2.1328-0.5 3.1367 0.96094 1.3281 2.4062 2.2852 4 2.6602v0.83203c0 1.2422 1.0078 2.25 2.25 2.25s2.25-1.0078 2.25-2.25v-0.82812c3.0859-0.71094 5.2969-3.4766 5.2969-6.6562 0-3.7578-3.0664-6.8281-6.8281-6.8281h-1.0234c-1.2773 0-2.3281-1.0508-2.3281-2.3281 0-1.2773 1.0508-2.3281 2.3281-2.3281h1.4414c0.76172 0 1.4453 0.34375 1.8906 0.96484 0.72266 1.0039 2.125 1.2344 3.1289 0.50781 1.0039-0.72266 1.2344-2.125 0.50781-3.1289-0.96875-1.3359-2.3945-2.2891-4-2.668v-0.83203c0-1.2422-1.0078-2.25-2.25-2.25-1.2422 0.003906-2.25 1.0117-2.25 2.2578zm2.043-9.3398c-11.816 0-21.395 9.5781-21.395 21.395s9.5781 21.395 21.395 21.395 21.395-9.5781 21.395-21.395-9.5781-21.395-21.395-21.395zm0 4.5c-9.332 0-16.895 7.5625-16.895 16.895 0 9.332 7.5625 16.895 16.895 16.895 9.332 0 16.895-7.5625 16.895-16.895 0-9.332-7.5625-16.895-16.895-16.895zm-51.742 9.7773c4.3516 19.617 8.3984 39.301 12.781 58.914v9.1602c0 6.5195 5.3164 11.836 11.836 11.836h63.094c2.75 0 4.9805-2.2305 4.9805-4.9805s-2.2305-4.9805-4.9805-4.9805l-63.094 0.007813c-1.0234 0-1.8789-0.85547-1.8789-1.8789v-4.6406c11.641 0 44.875-0.023437 46.918-0.015625 12.363 0.03125 16.09 0.039063 20.746-11.832l3.4531-8.8047c0.29297-0.35547 0.48047-0.80469 0.50781-1.2969l6.8164-17.383c3.1992-8.1641-2.8125-16.984-11.582-16.984h-7.1055c0 3.4844-0.58203 6.8359-1.6484 9.957h8.7578c1.8047 0 2.9766 1.7422 2.3242 3.4062l-2.5391 6.4805h-13.461v-0.85547c-1.5742 2-3.3906 3.7969-5.4023 5.3516h0.90234v7.6367h-10.121l-0.003906-2.75c-1.457 0.47656-2.957 0.84375-4.5 1.1016v1.6523h-10.121v-1.6523c-1.543-0.25781-3.0469-0.625-4.5-1.1016v2.75h-10.121v-7.6367h0.90234c-2.0117-1.5547-3.8281-3.3555-5.4023-5.3516v0.85547h-11.559c-0.70312-3.293-1.4062-6.5898-2.1133-9.8867h8.7578c-1.0703-3.125-1.6484-6.4727-1.6484-9.957h-9.2656c-0.83594-3.8203-1.7891-8.125-2.9141-13.168-0.51172-2.3164-2.5664-3.8906-4.8438-3.8906l-17.441-0.019531c-2.75 0-4.9805 2.2305-4.9805 4.9805s2.2305 4.9805 4.9805 4.9805zm71.422 53.5c-0.55469 0.003906-1.1406 0-1.7695 0-1.0781-0.003906-4.1719-0.007812-8.3555-0.007812v-9.8906h10.121zm4.5039-22.035v7.6367h8.6992l2.9961-7.6367zm0 12.133h6.9336l-1.7109 4.3672c-1.3516 3.4414-2.6914 4.75-5.2188 5.2422zm-33.746 9.8828c-3.4766 0-6.9297-0.003906-10.121-0.003906v-9.8789h10.121zm4.5-9.8828h10.121v9.8867c-3.125 0-6.582-0.003906-10.121-0.003906zm-19.121 9.8789h-5.8281c-0.73047-3.2891-1.4492-6.5859-2.1641-9.875h7.9922zm0-14.379v-7.6367h-10.602c0.54297 2.5469 1.0898 5.0938 1.6367 7.6367zm51.965 47.094c4.7422 0 8.5898 3.8477 8.5898 8.5898 0 4.7422-3.8438 8.5898-8.5898 8.5898-4.7422 0-8.5898-3.8438-8.5898-8.5898 0-4.7422 3.8438-8.5898 8.5898-8.5898z" fill="#fff" fill-rule="evenodd"/>
</svg>