<svg width="128pt" height="128pt" version="1.1" viewBox="0 0 128 128" xmlns="http://www.w3.org/2000/svg">
 <path d="m77.719 43.559h-27.438c-4.6211 0-8.3789-3.7617-8.3789-8.3789 0-4.6211 3.7617-8.3789 8.3789-8.3789h27.422c4.6211 0 8.3789 3.7617 8.3789 8.3789 0.019531 4.6016-3.7422 8.3789-8.3633 8.3789zm-27.438-12.898c-2.4805 0-4.5 2.0195-4.5 4.5 0 2.4805 2.0195 4.5 4.5 4.5h27.422c2.4805 0 4.5-2.0195 4.5-4.5 0-2.4805-2.0195-4.5-4.5-4.5z" fill="#fff"/>
 <path d="m21.801 125.9c-0.17969 0-0.35938 0-0.53906-0.019532-4.8984-0.35938-8.7812-4.7617-8.8789-10.02-0.44141-27.98 10.941-52.82 34.801-75.898 0.78125-0.73828 2-0.71875 2.7383 0.039062 0.73828 0.76172 0.71875 2-0.039063 2.7383-23.023 22.301-34.023 46.203-33.602 73.043 0.039062 3.2812 2.3594 6 5.2812 6.2188 2.1406 0.16016 4.8984-1.6992 7.1406-4.7188 0.64062-0.85938 1.8398-1.0391 2.7188-0.42188 0.85938 0.64062 1.0391 1.8398 0.42188 2.7188-2.9648 4-6.6641 6.3203-10.043 6.3203z" fill="#fff"/>
 <path d="m106.22 125.9c-3.3594 0-7.1797-2.3984-10.102-6.3594-0.64063-0.85937-0.44141-2.0781 0.42187-2.7188 0.85938-0.64062 2.0781-0.44141 2.7188 0.42188 2.1992 3 5.0781 4.9219 7.1797 4.7617 2.9219-0.21875 5.2188-2.9414 5.2812-6.2188 0.42188-26.859-10.578-50.762-33.621-73.059-0.78125-0.73828-0.78125-1.9805-0.039062-2.7383 0.73828-0.78125 1.9805-0.78125 2.7383-0.039062 23.859 23.078 35.238 47.922 34.801 75.898-0.078125 5.2617-3.9805 9.6602-8.8789 10.02-0.16016 0.011718-0.33984 0.03125-0.5 0.03125z" fill="#fff"/>
 <path d="m63.941 128c-14.281 0-28.539-4-42.719-12-0.94141-0.51953-1.2617-1.7188-0.73828-2.6406 0.53906-0.94141 1.6992-1.2617 2.6406-0.73828 27.078 15.301 54.539 15.301 81.621 0 0.94141-0.51953 2.1211-0.19922 2.6406 0.73828 0.51953 0.94141 0.19922 2.1211-0.73828 2.6406-14.168 8-28.449 12-42.707 12z" fill="#fff"/>
 <path d="m48.66 30.898c-0.60156 0-1.1797-0.28125-1.5586-0.80078l-10.262-14.059c-1.6406-2.2617-2.2812-5.1016-1.7617-7.8398s2.1602-5.1602 4.5195-6.6406c4.5-2.8398 10.461-1.6992 13.602 2.6016l7.0195 9.6992c0.62109 0.85938 0.44141 2.0781-0.44141 2.6992-0.85938 0.64062-2.0781 0.44141-2.6992-0.44141l-7.0195-9.6992c-1.9219-2.6602-5.6016-3.3594-8.3789-1.6016-1.4805 0.94141-2.4609 2.3789-2.7812 4.1016-0.32031 1.7188 0.058593 3.4219 1.0781 4.8398l10.262 14.059c0.64062 0.85938 0.44141 2.0781-0.42188 2.7188-0.35547 0.24609-0.75781 0.36328-1.1562 0.36328z" fill="#fff"/>
 <path d="m79.34 30.898c-0.39844 0-0.80078-0.12109-1.1406-0.37891-0.85938-0.64062-1.0586-1.8398-0.42188-2.7188l10.262-14.059c1.0195-1.3984 1.4219-3.1211 1.0781-4.8398-0.32031-1.6992-1.3203-3.1602-2.7812-4.1016-2.7617-1.7617-6.4609-1.0586-8.3789 1.6016l-7.0195 9.6992c-0.62109 0.85938-1.8398 1.0586-2.6992 0.44141-0.85938-0.62109-1.0586-1.8398-0.44141-2.6992l7.0195-9.6992c3.1211-4.3203 9.1016-5.4609 13.602-2.6016 2.3594 1.5 4 3.9219 4.5195 6.6406 0.51953 2.7383-0.12109 5.6016-1.7617 7.8398l-10.262 14.059c-0.39453 0.55859-0.97266 0.81641-1.5742 0.81641z" fill="#fff"/>
 <path d="m52.52 8.5391h-0.10156c-1.0781-0.058593-1.8984-0.96094-1.8398-2.0391 0.18359-3.6406 3.1836-6.5 6.8203-6.5h13.18c3.6211 0 6.6406 2.8203 6.8594 6.4414l-1.9414 0.14062h-1.9414c-0.10156-1.5-1.3789-2.6992-2.9805-2.6992l-13.176-0.003906c-1.5781 0-2.8789 1.2383-2.9609 2.8203-0.039062 1.0391-0.89844 1.8398-1.918 1.8398z" fill="#fff"/>
</svg>
