<svg width="128pt" height="128pt" version="1.1" viewBox="0 0 128 128" xmlns="http://www.w3.org/2000/svg">
 <path d="m29.234 120.55h-15.023c-4.3047 0-7.8086-3.5-7.8086-7.8047v-55.559c0-4.3047 3.5039-7.8047 7.8086-7.8047h15.023c4.3047 0 7.8047 3.5039 7.8047 7.8047v55.559c0 4.3047-3.5039 7.8047-7.8047 7.8047zm-15.023-66.742c-1.8633 0-3.375 1.5156-3.375 3.375v55.559c0 1.8594 1.5156 3.375 3.375 3.375h15.023c1.8594 0 3.375-1.5156 3.375-3.375v-55.559c0-1.8594-1.5156-3.375-3.375-3.375zm57.301 66.742h-15.02c-4.3047 0-7.8047-3.5-7.8047-7.8047l-0.003906-97.488c0-4.3047 3.5039-7.8047 7.8047-7.8047h15.023c4.3047 0 7.8047 3.5039 7.8047 7.8047v97.488c0.003906 4.3047-3.4961 7.8047-7.8047 7.8047zm-15.02-108.67c-1.8594 0-3.375 1.5156-3.375 3.375v97.488c0 1.8594 1.5156 3.375 3.375 3.375h15.023c1.8594 0 3.375-1.5156 3.375-3.375l-0.003906-97.488c0-1.8594-1.5156-3.375-3.375-3.375zm57.305 108.67h-15.031c-4.3047 0-7.8047-3.5-7.8047-7.8047v-69.887c0-4.3047 3.5-7.8047 7.8047-7.8047h15.023c4.3086 0 7.8086 3.5 7.8086 7.8047v69.887c0 4.3047-3.5 7.8047-7.8047 7.8047zm-15.031-81.066c-1.8594 0-3.375 1.5156-3.375 3.375v69.887c0 1.8594 1.5156 3.375 3.375 3.375h15.023c1.8594 0 3.375-1.5156 3.375-3.375l0.003907-69.887c0-1.8594-1.5156-3.375-3.375-3.375z" fill="#fff"/>
</svg>
