<svg width="128px" height="128px" version="1.1" viewBox="0 0 128 128" xmlns="http://www.w3.org/2000/svg">
 <path d="m40.762 40c-2.7617 0-4.7188-2.8008-3.7617-5.3984 4.1992-11.121 15.039-18.602 27-18.602 2.1992 0 4 1.8008 4 4s-1.8008 4-4 4c-8.6406 0-16.48 5.3984-19.48 13.398-0.60156 1.6016-2.1211 2.6016-3.7617 2.6016z" fill="#fff"/>
 <path d="m64 104h-28.801c-6.1602 0-11.199-5.0391-11.199-11.199 0-1.8398-0.55859 1.2812 9-41.68 0.48047-2.1602 2.6406-3.5195 4.7617-3.0391 2.1602 0.48047 3.5195 2.6016 3.0391 4.7617-9.3984 42.121-8.8398 39.32-8.8398 39.922 0 1.7617 1.4414 3.1992 3.1992 3.1992h28.801c2.1992 0 4 1.8008 4 4 0 2.1992-1.8008 4-4 4z" fill="#fff"/>
 <path d="m92.801 104h-12.801c-2.1992 0-4-1.8008-4-4s1.8008-4 4-4h12.801c2.1211 0 3.6016-2.0391 3.1602-3.8398l-5.1602-23.281c-0.48047-2.1602 0.87891-4.2812 3.0391-4.7617 2.1602-0.48047 4.2812 0.87891 4.7617 3.0391l5.1602 23.238c1.5586 6.6797-3.6016 13.641-10.961 13.641z" fill="#fff"/>
 <path d="m91.078 56c-1.8398 0-3.4805-1.2812-3.9219-3.1211l-2.7617-12.48c-1.0391-4.5586-3.4414-8.5195-6.9609-11.48-1.6797-1.3984-1.9219-3.9219-0.51953-5.6406 1.3984-1.6797 3.9609-1.9219 5.6406-0.51953 9.0781 7.5586 9.6406 15.84 12.441 28.359 0.55859 2.4805-1.3594 4.8789-3.9219 4.8789z" fill="#fff"/>
 <path d="m92 128h-56c-2.1992 0-4-1.8008-4-4v-24c0-2.1992 1.8008-4 4-4s4 1.8008 4 4v20h48v-20c0-2.1992 1.8008-4 4-4s4 1.8008 4 4v24c0 2.1992-1.8008 4-4 4z" fill="#fff"/>
 <path d="m104 128h-80c-2.1992 0-4-1.8008-4-4s1.8008-4 4-4h80c2.1992 0 4 1.8008 4 4s-1.8008 4-4 4z" fill="#fff"/>
 <path d="m64 128c-2.1992 0-4-1.8008-4-4v-8c0-2.1992 1.8008-4 4-4s4 1.8008 4 4v8c0 2.1992-1.8008 4-4 4z" fill="#fff"/>
 <path d="m64 56c-2.1992 0-4-1.8008-4-4v-48c0-2.1992 1.8008-4 4-4s4 1.8008 4 4v48c0 2.1992-1.8008 4-4 4z" fill="#fff"/>
 <path d="m80 40h-16c-2.1992 0-4-1.8008-4-4v-32c0-2.1992 1.8008-4 4-4h16c2.1992 0 4 1.8008 4 4v32c0 2.1992-1.8008 4-4 4zm-12-8h8v-24h-8z" fill="#fff"/>
 <path d="m112 56h-48c-2.1992 0-4-1.8008-4-4s1.8008-4 4-4h48c2.1992 0 4 1.8008 4 4s-1.8008 4-4 4z" fill="#fff"/>
 <path d="m112 72h-32c-2.1992 0-4-1.8008-4-4v-16c0-2.1992 1.8008-4 4-4h32c2.1992 0 4 1.8008 4 4v16c0 2.1992-1.8008 4-4 4zm-28-8h24v-8h-24z" fill="#fff"/>
 <path d="m64 104c-2.1992 0-4-1.8008-4-4v-48c0-2.1992 1.8008-4 4-4s4 1.8008 4 4v48c0 2.1992-1.8008 4-4 4z" fill="#fff"/>
 <path d="m64 104h-16c-2.1992 0-4-1.8008-4-4v-32c0-2.1992 1.8008-4 4-4h16c2.1992 0 4 1.8008 4 4v32c0 2.1992-1.8008 4-4 4zm-12-8h8v-24h-8z" fill="#fff"/>
 <path d="m64 56h-48c-2.1992 0-4-1.8008-4-4s1.8008-4 4-4h48c2.1992 0 4 1.8008 4 4s-1.8008 4-4 4z" fill="#fff"/>
 <path d="m48 56h-32c-2.1992 0-4-1.8008-4-4v-16c0-2.1992 1.8008-4 4-4h32c2.1992 0 4 1.8008 4 4v16c0 2.1992-1.8008 4-4 4zm-28-8h24v-8h-24z" fill="#fff"/>
</svg>
